<svg xmlns="http://www.w3.org/2000/svg" viewBox="0 0 160 160">
  <path fill="#22C55E" d="M131.81,15.93v48.38c0,5.85-2.31,11.47-6.42,15.63l-17.63,17.84c-.46.47-1.21.47-1.68,0l-14.05-13.9c-.47-.46-.47-1.21,0-1.68l10.66-10.78c1.16-1.17,1.81-2.75,1.81-4.4v-23.54c0-2.03-1.64-3.67-3.67-3.67h-19.79c-4.02,0-7.87,1.61-10.69,4.47l-14.4,14.57c-1.78,1.8-2.78,4.24-2.78,6.77v20.33c0,2.31,1.87,4.18,4.18,4.18h22.63c3.36,0,6.59,1.33,8.99,3.69l40.94,40.43c1.21,1.2,1.89,2.83,1.89,4.53v6.81c0,1.69-1.37,3.06-3.06,3.06h-13.54c-2.91,0-5.7-1.15-7.77-3.19l-25.38-25.09c-2.19-2.16-5.14-3.38-8.21-3.38h-19.96c-14.2,0-25.71-11.51-25.71-25.71v-26.78c0-7.78,3.06-15.25,8.53-20.79l3.85-3.9,20.23-20.47c5.07-5.13,11.99-8.02,19.2-8.02h47.21c2.54,0,4.6,2.06,4.6,4.6Z"/>
</svg>
